<svg width="780" height="171" viewBox="0 0 780 171" fill="none" xmlns="http://www.w3.org/2000/svg">
<path d="M289.598 0.665217V0.508789H197.671V170.224H240.99V108.913H284.319L289.589 108.88V108.757C314.496 106.789 333.712 86.5439 333.712 61.8284V47.5935C333.712 22.8779 314.487 2.63291 289.589 0.665217H289.598ZM293.061 54.715C293.061 63.9278 285.411 71.4199 276.005 71.4199H240.457V38.0102H276.005C285.411 38.0102 293.061 45.5023 293.061 54.715Z" fill="#01050F"/>
<path d="M451.451 0.664551H408.139V170.38H451.451V0.664551Z" fill="#01050F"/>
<path d="M509.472 0.664551H467.045V170.455H509.472V0.664551Z" fill="#01050F"/>
<path d="M758.385 38.0864C746.305 38.0864 736.662 41.3263 729.727 47.7066C726.162 50.9962 723.287 55.1393 721.127 60.111V38.0864H677.748V170.464H721.127V94.3825C721.127 90.0323 722.8 86.4029 726.255 83.2708C729.744 80.0558 733.821 78.4897 738.705 78.4897H779.982V38.0864H758.385Z" fill="#01050F"/>
<path d="M618.792 60.2917C616.891 55.4858 614.274 51.5834 611.272 48.327C606.975 43.6536 601.5 40.5214 595.008 39.0133L594.898 38.9885C591.93 38.4665 588.768 38.2013 585.496 38.2013C568.837 38.2013 554.801 43.6122 543.785 54.293C532.053 65.6782 526.107 82.4327 526.107 104.093C526.107 125.753 532.341 143.723 544.249 155.091C554.559 165.068 567.323 170.464 582.57 170.464C590.996 170.464 599.078 168.588 606.579 165.34C610.574 163.649 614.814 159.641 618.792 155.945V162.778V165.34V170.464H662.131V38.0864H618.792V60.2917ZM595.891 71.2299C603.056 71.2299 608.505 73.956 612.592 79.5823C616.915 85.3163 619.11 93.387 619.11 103.562C619.11 125.14 611.432 135.63 595.63 135.63C588.465 135.63 583.016 132.904 578.954 127.302C574.791 121.56 572.68 113.398 572.68 103.032C572.68 93.2047 574.875 85.3163 579.189 79.5823C583.428 73.956 588.894 71.2299 595.891 71.2299Z" fill="#01050F"/>
<path d="M392.545 58.4771H349.232V170.489H392.545V58.4771Z" fill="#01050F"/>
<rect x="349.232" y="0.664551" width="43.3125" height="42.4288" fill="#01050F"/>
<rect x="0.0146484" y="0.586914" width="173.278" height="169.715" fill="#F74A53"/>
<rect x="44.3887" y="38.0088" width="25.9875" height="95.0404" fill="#F6F0F1"/>
<rect x="73.6855" y="38.0088" width="25.9875" height="95.0404" fill="#F6F0F1"/>
<rect x="103.139" y="38.0088" width="25.9875" height="61.0974" fill="#F6F0F1"/>
</svg>
